<?xml version="1.0" standalone="no"?>
<!DOCTYPE svg PUBLIC "-//W3C//DTD SVG 20010904//EN"
 "http://www.w3.org/TR/2001/REC-SVG-20010904/DTD/svg10.dtd">
<svg version="1.0" xmlns="http://www.w3.org/2000/svg"
 width="92.000000pt" height="92.000000pt" viewBox="0 0 92.000000 92.000000"
 preserveAspectRatio="xMidYMid meet">
<metadata>
Created by potrace 1.11, written by Peter Selinger 2001-2013
</metadata>
<g transform="translate(0.000000,92.000000) scale(0.100000,-0.100000)"
fill="#000000" stroke="none">
<path d="M305 868 c-57 -33 -76 -95 -50 -160 21 -54 22 -139 2 -208 -12 -41
-28 -67 -62 -100 -92 -90 -165 -219 -180 -320 l-6 -40 53 51 c104 100 209 143
342 141 97 -1 130 10 165 54 47 60 47 130 -1 182 -21 21 -21 22 -2 23 40 3 91
-2 142 -16 84 -22 151 6 189 79 47 89 -25 189 -142 199 -75 6 -222 -42 -276
-90 -15 -13 -16 -9 -12 46 9 101 -39 172 -115 171 -15 0 -36 -6 -47 -12z m80
-78 c28 -31 22 -104 -15 -183 -26 -55 -38 -60 -32 -13 2 18 -3 61 -12 95 -20
78 -20 86 0 105 21 21 37 20 59 -4z m414 -144 c17 -18 22 -32 17 -50 -11 -43
-38 -50 -129 -32 -45 9 -106 14 -134 11 -29 -2 -53 -2 -53 -1 0 10 87 58 137
75 82 28 134 27 162 -3z m-307 -233 c24 -21 23 -59 -2 -80 -15 -13 -42 -17
-112 -19 -53 -1 -112 -8 -138 -17 l-45 -16 54 50 c91 85 199 122 243 82z"/>
</g>
</svg>
